<?xml version="1.0" encoding="UTF-8"?>
<svg width="48px" height="26px" viewBox="0 0 48 26" version="1.1" xmlns="http://www.w3.org/2000/svg" xmlns:xlink="http://www.w3.org/1999/xlink">
    <title>logo</title>
    <desc>Created with Sketch.</desc>
    <defs></defs>
    <g id="Page-1" stroke="none" stroke-width="1" fill="none" fill-rule="evenodd">
        <g id="logo" fill="#FFFFFF">
            <path d="M10.138,18.16 L9.858,16.676 C9.774,16.284 9.634,16.116 8.99,16.228 C8.682,16.312 8.01,16.396 7.73,16.396 C6.834,16.396 6.526,15.892 6.526,14.996 L6.526,9.34 C6.526,9.144 6.61,9.06 6.862,9.06 L9.13,9.06 C9.41,9.06 9.578,8.892 9.578,8.612 L9.578,7.016 C9.578,6.736 9.41,6.568 9.13,6.568 L6.918,6.568 C6.582,6.568 6.526,6.4 6.526,6.204 L6.526,3.46 C6.526,3.18 6.358,2.984 5.966,3.068 L3.922,3.516 C3.614,3.6 3.474,3.824 3.474,4.076 L3.474,6.176 C3.474,6.4 3.362,6.568 3.082,6.568 L2.102,6.568 C1.85,6.568 1.654,6.736 1.654,7.016 L1.654,8.64 C1.654,8.892 1.85,9.06 2.13,9.06 L3.166,9.06 C3.418,9.06 3.502,9.172 3.502,9.368 L3.502,15.528 C3.502,17.572 4.314,19.168 7.226,19.168 C8.038,19.14 8.962,19.112 9.634,18.888 C9.914,18.776 10.222,18.664 10.138,18.16 Z M30.15,18.58 L30.15,11.16 C30.15,8.36 28.358,6.372 25.306,6.372 C23.934,6.372 22.422,7.072 21.694,7.912 C21.638,7.968 21.582,8.024 21.498,8.024 C21.442,8.024 21.386,7.94 21.302,7.884 C20.546,7.016 19.146,6.372 17.83,6.372 C14.806,6.372 12.846,8.388 12.846,11.16 L12.846,18.608 C12.846,18.86 12.986,19 13.266,19 L15.45,19 C15.758,19 15.926,18.86 15.926,18.58 L15.926,11.16 C15.926,10.012 16.71,9.032 17.942,9.032 C19.146,9.032 19.958,10.012 19.958,11.16 L19.958,18.608 C19.958,18.86 20.126,19 20.406,19 L22.562,19 C22.87,19 23.01,18.86 23.01,18.58 L23.01,11.16 C23.01,10.096 23.962,9.032 25.026,9.032 C26.482,9.032 27.098,10.012 27.098,11.16 L27.098,18.608 C27.098,18.86 27.238,19 27.518,19 L29.702,19 C29.982,19 30.15,18.86 30.15,18.58 Z M45.542,8.584 C45.542,8.864 45.486,8.976 45.122,8.948 C44.814,8.92 44.17,8.92 43.75,9.004 C43.61,9.032 43.47,9.144 43.554,9.34 C43.778,9.844 43.918,10.404 43.918,11.02 C43.918,13.708 41.566,15.724 38.626,15.724 L37.954,15.724 C37.198,15.752 36.638,16.424 36.414,17.096 C36.358,17.292 36.47,17.348 36.582,17.32 C37.534,17.124 38.794,17.04 39.354,17.04 C42.294,17.04 45.206,17.992 45.206,20.876 C45.206,22.36 43.946,23.928 42.518,24.572 C42.154,24.712 41.79,24.824 41.594,24.544 L40.726,23.228 C40.53,22.976 40.642,22.724 41.006,22.5 C41.398,22.276 42.154,21.632 42.154,20.96 C42.154,19.812 40.53,19.532 39.41,19.532 C38.206,19.532 36.302,19.784 34.93,19.98 C34.398,20.064 34.202,19.896 34.034,19.672 C33.642,19.14 33.474,18.552 33.474,17.572 C33.474,16.704 34.09,15.556 35.014,14.968 C35.182,14.856 35.266,14.716 35.07,14.548 C34.174,13.82 33.53,12.56 33.53,11.02 C33.53,8.388 35.966,6.372 38.626,6.372 C39.802,6.372 40.95,6.708 41.874,7.324 C42.042,7.436 42.238,7.436 42.378,7.324 C43.274,6.68 44.086,6.4 45.066,6.4 C45.43,6.4 45.542,6.568 45.542,6.876 L45.542,8.584 Z M40.866,11.16 C40.866,10.04 40.026,9.088 38.766,9.088 C37.394,9.088 36.526,10.068 36.526,11.16 C36.526,12.224 37.31,13.176 38.626,13.176 C40.082,13.176 40.866,12.252 40.866,11.16 Z"></path>
        </g>
    </g>
</svg>